<svg id="Layer_1" data-name="Layer 1" xmlns="http://www.w3.org/2000/svg" viewBox="0 0 191 26"><defs><style>.cls-1{fill:#fff;}</style></defs><path class="cls-1" d="M0,19H4.34c.19,1.86,1.62,3,3.75,3,1.86,0,3.1-.92,3.1-2.08,0-4.34-10.69-.2-10.68-8.45,0-3.41,3-5.81,7-5.8,4.57,0,7.7,2.52,7.89,6.31H11.08A3.36,3.36,0,0,0,7.63,9.2c-1.7,0-2.82.77-2.82,2.09,0,4.22,10.84-.42,10.83,8.4,0,3.68-3,6.08-7.55,6.08C3.36,25.76.23,23.13,0,19Zm25.68-9H31.1V6H25.68V0H20.93V6H17.09v4h3.83v8.71c0,2.11,0,4.71,0,6.82H31.1v-4.3H25.68ZM39,10h6.37V6H34.21V25.47h4.86Zm57.62,0H102V6H96.59V.08H91.83V6H88v4h3.84v8.71c0,2.11,0,4.71,0,6.82H102v-4.3H96.58ZM65.43,19c-.74,4.14-4.38,6.81-9.18,6.81-6.38,0-9.94-5-9.94-10.15s3.18-10,9.57-10,9.48,4.77,9.48,9.42c0,.65,0,1.24-.08,1.62H50.88c.34,3.14,2.36,5.15,5.38,5.16,2.44,0,4-1,4.53-2.87ZM51,13.56H60.6a4.48,4.48,0,0,0-4.72-4.33C53.2,9.22,51.5,10.62,51,13.56ZM86.73,19c-.74,4.14-4.38,6.81-9.18,6.81-6.39,0-10-5-10-10.15s3.18-10,9.57-10,9.48,4.76,9.48,9.41c0,.66,0,1.24-.08,1.63H72.17c.35,3.13,2.36,5.15,5.38,5.15,2.44,0,4-1,4.53-2.86ZM72.29,13.57h9.6a4.47,4.47,0,0,0-4.72-4.34C74.5,9.24,72.79,10.63,72.29,13.57Zm32.21,2.19c0-6,3.45-10.07,9.22-10.06a6.85,6.85,0,0,1,5.73,2.67V.09h4.72l0,25.44h-4.72V23.08a6.71,6.71,0,0,1-5.65,2.75C107.94,25.83,104.5,21.72,104.5,15.76Zm15.26,0c0-3.6-2.09-6-5.27-6s-5.26,2.36-5.26,6,2.08,6,5.26,6S119.75,19.37,119.76,15.77Zm6.91,0a10.2,10.2,0,0,1,20.4,0,10.2,10.2,0,0,1-20.4,0Zm15.6,0c0-3.52-2.16-6-5.38-6s-5.42,2.44-5.42,6,2.16,6,5.42,6S142.27,19.3,142.27,15.78Zm7,0c0-5.57,3.84-10.06,9.91-10.06,4.92,0,8.91,3,9.33,7.44h-4.72a4.38,4.38,0,0,0-4.49-3.33c-3.29,0-5.08,2.55-5.08,6s1.82,6,5.15,6a4.32,4.32,0,0,0,4.45-3.21h4.8c-.62,4.26-4.41,7.32-9.45,7.31C153.06,25.85,149.23,21.36,149.24,15.78Zm35.09,9.78-6.07-8.71-2.33,2.24v6.46h-4.76V0H176V13.17l7.47-7.12h6l-7.94,7.66,8.59,11.85Z"/></svg>