<?xml version="1.0" encoding="utf-8"?>
<!-- Generator: Adobe Illustrator 26.0.3, SVG Export Plug-In . SVG Version: 6.00 Build 0)  -->
<svg version="1.1" id="Layer_1" xmlns="http://www.w3.org/2000/svg" xmlns:xlink="http://www.w3.org/1999/xlink" x="0px" y="0px"
	 viewBox="0 0 71 71" style="enable-background:new 0 0 71 71;" xml:space="preserve">
<style type="text/css">
	.st0{fill:#FFFFFF;}
</style>
<g>
	<path class="st0" d="M35.5,71C15.9,71,0,55.1,0,35.5S15.9,0,35.5,0S71,15.9,71,35.5C71,55.1,55.1,71,35.5,71z M35.5,3
		C17.6,3,3,17.6,3,35.5S17.6,68,35.5,68S68,53.4,68,35.5C68,17.6,53.4,3,35.5,3z"/>
	<g>
		<path class="st0" d="M17.7,30.3h2.6c0.9-0.1,1.8,0.1,2.6,0.5c1.3,0.7,1.8,2.3,1.1,3.6c-0.2,0.4-0.5,0.7-0.9,1
			c-0.9,0.4-1.8,0.6-2.8,0.5h-0.6V39h-1.9V30.3z M20.3,34.3c0.5,0.1,1,0,1.5-0.2c0.5-0.3,0.7-1,0.4-1.5c-0.1-0.2-0.3-0.4-0.5-0.5
			c-0.5-0.2-1-0.2-1.5-0.2h-0.6v2.4L20.3,34.3z"/>
		<path class="st0" d="M26.6,30.3h1.9v7h3.8V39h-5.7V30.3z"/>
		<path class="st0" d="M37.2,30.3h1.8l3.5,8.7h-2l-0.7-1.8h-3.5L35.6,39h-2L37.2,30.3z M36.9,35.6h2.3l-0.4-1
			c-0.2-0.7-0.6-1.5-0.8-2.2l0,0c-0.2,0.7-0.5,1.5-0.8,2.2L36.9,35.6z"/>
		<path class="st0" d="M47,35l-3.3-4.8h2.2l1,1.6c0.3,0.5,0.7,1.1,1,1.6l0,0c0.3-0.5,0.7-1.1,1-1.6l1-1.6h2.1L48.9,35v4H47V35z"/>
	</g>
</g>
</svg>
